<svg 
          width="16" 
          height="21" fill="none" 
          xmlns="http://www.w3.org/2000/svg">
          <path d="M 2 21 C 1.449999988079071 21 0.9793331623077393 20.804333448410034 0.5879998207092285 20.413000106811523 C 0.19599983096122742 20.021000117063522 0 19.55000001192093 0 19 L 0 9 C 0 8.449999988079071 0.19599983096122742 7.978999882936478 0.5879998207092285 7.586999893188477 C 0.9793331623077393 7.195666551589966 1.449999988079071 7 2 7 L 3 7 L 3 5 C 3 3.6166666746139526 3.487666964530945 2.4373332262039185 4.463000297546387 1.4619998931884766 C 5.437666952610016 0.4873332381248474 6.616666674613953 0 8 0 C 9.383333325386047 0 10.562666773796082 0.4873332381248474 11.538000106811523 1.4619998931884766 C 12.512666761875153 2.4373332262039185 13 3.6166666746139526 13 5 L 13 7 L 14 7 C 14.550000011920929 7 15.021000117063522 7.195666551589966 15.413000106811523 7.586999893188477 C 15.804333448410034 7.978999882936478 16 8.449999988079071 16 9 L 16 19 C 16 19.55000001192093 15.804333448410034 20.021000117063522 15.413000106811523 20.413000106811523 C 15.021000117063522 20.804333448410034 14.550000011920929 21 14 21 L 2 21 Z M 8 16 C 8.550000011920929 16 9.021000117063522 15.804333448410034 9.413000106811523 15.413000106811523 C 9.804333448410034 15.021000117063522 10 14.550000011920929 10 14 C 10 13.449999988079071 9.804333448410034 12.978999882936478 9.413000106811523 12.586999893188477 C 9.021000117063522 12.195666551589966 8.550000011920929 12 8 12 C 7.449999988079071 12 6.9793336391448975 12.195666551589966 6.588000297546387 12.586999893188477 C 6.196000307798386 12.978999882936478 6 13.449999988079071 6 14 C 6 14.550000011920929 6.196000307798386 15.021000117063522 6.588000297546387 15.413000106811523 C 6.9793336391448975 15.804333448410034 7.449999988079071 16 8 16 Z M 5 7 L 11 7 L 11 5 C 11 4.166666686534882 10.708333313465118 3.4583333134651184 10.125 2.875 C 9.541666686534882 2.2916666865348816 8.833333313465118 2 8 2 C 7.166666686534882 2 6.458333313465118 2.2916666865348816 5.875 2.875 C 5.291666686534882 3.4583333134651184 5 4.166666686534882 5 5 L 5 7 Z" fill="rgb(221.00000202655792,72.00000330805779,20.000000707805157)"/>
        </svg>