<svg 
          width="16" 
          height="16" fill="none" 
          xmlns="http://www.w3.org/2000/svg">
          <path d="M 8 8 C 6.899999976158142 8 5.9583335518836975 7.608333170413971 5.175000190734863 6.824999809265137 C 4.391666829586029 6.0416664481163025 4 5.100000023841858 4 4 C 4 2.899999976158142 4.391666829586029 1.9583335518836975 5.175000190734863 1.1750001907348633 C 5.9583335518836975 0.39166682958602905 6.899999976158142 0 8 0 C 9.100000023841858 0 10.041666448116302 0.39166682958602905 10.824999809265137 1.1750001907348633 C 11.608333170413971 1.9583335518836975 12 2.899999976158142 12 4 C 12 5.100000023841858 11.608333170413971 6.0416664481163025 10.824999809265137 6.824999809265137 C 10.041666448116302 7.608333170413971 9.100000023841858 8 8 8 Z M 0 16 L 0 13.200000762939453 C 0 12.63333410024643 0.1460002064704895 12.112333416938782 0.4380002021789551 11.63700008392334 C 0.7293335497379303 11.16233342885971 1.1166665852069855 10.800000190734863 1.5999999046325684 10.550000190734863 C 2.633333206176758 10.033333539962769 3.6833332777023315 9.645666748285294 4.75 9.38700008392334 C 5.8166667222976685 9.129000097513199 6.899999976158142 9 8 9 C 9.100000023841858 9 10.183333277702332 9.129000097513199 11.25 9.38700008392334 C 12.316666722297668 9.645666748285294 13.366666316986084 10.033333539962769 14.399999618530273 10.550000190734863 C 14.883332937955856 10.800000190734863 15.270666927099228 11.16233342885971 15.562000274658203 11.63700008392334 C 15.854000270366669 12.112333416938782 16 12.63333410024643 16 13.200000762939453 L 16 16 L 0 16 Z" fill="rgb(221.00000202655792,72.00000330805779,20.000000707805157)"/>
        </svg>